<svg width="131" height="120" viewBox="0 0 131 120" fill="none" xmlns="http://www.w3.org/2000/svg">
<path d="M35.8543 1.18703C34.1917 2.07029 33.0487 3.21334 31.8017 5.23965C30.1391 7.9414 30.0871 8.25314 30.243 12.2538C30.5028 17.1897 31.1263 18.3847 34.6074 20.7227C36.6337 22.0736 37.5689 22.3334 39.9589 22.3334C43.2322 22.2815 45.9859 21.4501 48.5837 19.6836C51.4933 17.7093 52.9481 15.1114 53.6755 10.851C54.6107 5.29161 55.9616 6.22683 56.0655 12.5655C56.1175 14.436 55.7018 16.6182 55.0264 18.4367C54.4029 20.0473 54.0392 21.4501 54.1431 21.5021C54.1951 21.606 55.6498 22.3334 57.3644 23.1647C59.027 23.996 61.2612 25.4508 62.3523 26.3341C63.4434 27.2693 64.4825 28.0486 64.6384 28.0486C64.8462 28.0486 66.6647 26.3341 68.7429 24.2558C75.2375 17.8651 81.2645 15.1634 89.2139 15.1114C96.8515 15.0075 103.138 17.3975 108.23 22.2295C111.244 25.1391 114.777 27.0095 117.219 27.0095C119.141 27.0095 114.101 20.0993 109.373 16.3064C98.67 7.62966 82.8752 7.26596 71.5486 15.3712C70.1458 16.4103 68.7429 17.0858 68.4312 16.9819C68.0675 16.826 65.2618 14.5919 62.1444 11.994C55.442 6.33074 49.3111 1.96638 46.5574 0.823331C43.5959 -0.42363 38.712 -0.215803 35.8543 1.18703Z" fill="#3D52A0"/>
<path d="M17.3578 20.6188C15.5393 20.9825 12.1621 24.2039 10.9671 26.7497C7.90164 33.2963 11.5386 42.077 18.1371 44.1033C20.5271 44.7787 24.4239 44.8307 26.1384 44.2072C28.1648 43.4278 31.1263 40.5702 32.3733 38.2322C33.6722 35.6863 33.88 30.6984 32.7889 26.9056C32.1654 24.7234 32.1654 24.2558 32.8928 23.2167L33.7241 21.9697L28.8922 21.0865C24.4239 20.3071 19.9036 20.0993 17.3578 20.6188Z" fill="#3D52A0"/>
<path d="M101.839 28.5682C99.2415 29.0358 98.722 29.4515 97.5789 32.0493C95.6565 36.4137 97.3711 40.9859 102.255 44.6748C105.372 46.9609 107.71 47.7922 111.295 47.7922C112.646 47.7922 113.893 48.052 114.101 48.3637C114.257 48.6755 112.958 50.442 111.088 52.4163C105.684 57.8718 102.671 63.0155 100.8 69.7179C99.5013 74.394 97.8387 85.7725 97.423 92.7347C96.9035 101.1 97.1113 100.684 92.0715 105.724C87.3434 110.504 81.2126 115.44 78.9265 116.323C76.9001 117.05 73.7827 116.219 67.7558 113.206C58.1438 108.478 45.4663 99.645 35.8024 90.8123C33.3085 88.5782 31.0224 86.7597 30.7106 86.7597C30.3989 86.7597 29.4117 87.5391 28.5285 88.5262C25.9826 91.4878 19.2282 92.9945 19.2282 90.6565C19.2282 90.2408 19.8517 89.5654 20.683 89.1497C22.9171 87.9547 25.515 85.1491 26.5541 82.7591C27.3854 80.7847 27.4374 80.2651 26.8139 77.979C26.0345 74.9136 24.1121 71.9521 22.4495 71.2247C19.1243 69.666 14.708 71.0688 10.9151 74.8097C5.51163 80.1093 4.52445 84.4736 7.48598 89.6173C9.92795 93.7219 11.9543 94.813 28.1128 100.736C37.3611 104.113 47.9603 108.685 56.3772 112.894C69.4703 119.44 78.9784 121.363 86.6161 119.077C91.0843 117.726 100.437 112.946 104.853 109.777C117.322 100.892 125.532 88.4743 129.376 72.7314C130.416 68.6268 130.623 66.3927 130.623 59.2227C130.675 53.6113 130.416 49.6626 129.948 47.7922C128.961 43.7396 125.947 38.2322 123.038 35.0628L120.544 32.3091L112.646 30.3867C108.282 29.3476 104.489 28.4123 104.177 28.3604C103.918 28.3084 102.827 28.3604 101.839 28.5682Z" fill="#3D52A0"/>
<path d="M45.4664 33.1924C39.8031 35.0628 33.8281 41.1417 31.1263 47.8442C29.7235 51.4292 29.2039 58.9629 30.1391 62.9116C31.2302 67.3799 33.932 73.3029 36.8935 77.7193C40.2707 82.7071 49.4151 91.7995 54.7147 95.4885C58.5075 98.1383 58.6114 98.1383 58.6114 96.8393C58.6114 95.8002 58.1958 95.3326 56.689 94.7091C54.1951 93.618 43.3881 82.7071 40.4266 78.1869C37.4131 73.6147 34.4515 66.3927 33.7241 61.8205C32.9967 57.612 33.88 52.4164 36.1661 47.5324C37.8807 43.7915 44.2714 37.1411 47.8044 35.3226C50.7659 33.8678 50.7659 33.8158 49.8827 33.2443C48.9994 32.6728 47.0251 32.6728 45.4664 33.1924Z" fill="#3D52A0"/>
<path d="M6.08317 45.8698C3.84903 46.5972 1.87468 48.2598 0.679673 50.5459C-0.567288 52.9879 -0.047721 58.3394 1.82272 62.0283C3.38142 65.0938 9.25253 71.1727 10.6554 71.1727C11.7465 71.1727 11.6425 70.7571 9.87601 68.7308C9.0447 67.7955 8.31731 66.8084 8.31731 66.5486C8.31731 66.2888 9.66818 65.9771 11.3308 65.8731C17.3578 65.3016 22.1378 61.6127 23.6445 56.3651C25.3591 50.5979 23.4367 48 16.3186 46.2855C11.0191 45.0905 8.99275 44.9865 6.08317 45.8698Z" fill="#3D52A0"/>
</svg>
