<svg width="397" height="120" viewBox="0 0 397 120" fill="none" xmlns="http://www.w3.org/2000/svg">
<path d="M35.8543 1.18703C34.1917 2.07029 33.0487 3.21334 31.8017 5.23965C30.1391 7.9414 30.0871 8.25314 30.243 12.2538C30.5028 17.1897 31.1263 18.3847 34.6074 20.7227C36.6337 22.0736 37.5689 22.3334 39.9589 22.3334C43.2322 22.2815 45.9859 21.4501 48.5837 19.6836C51.4933 17.7093 52.9481 15.1114 53.6755 10.851C54.6107 5.29161 55.9616 6.22683 56.0655 12.5655C56.1175 14.436 55.7018 16.6182 55.0264 18.4367C54.4029 20.0473 54.0392 21.4501 54.1431 21.5021C54.1951 21.606 55.6498 22.3334 57.3644 23.1647C59.027 23.996 61.2612 25.4508 62.3523 26.3341C63.4434 27.2693 64.4825 28.0486 64.6384 28.0486C64.8462 28.0486 66.6647 26.3341 68.7429 24.2558C75.2375 17.8651 81.2645 15.1634 89.2139 15.1114C96.8515 15.0075 103.138 17.3975 108.23 22.2295C111.244 25.1391 114.777 27.0095 117.219 27.0095C119.141 27.0095 114.101 20.0993 109.373 16.3064C98.67 7.62966 82.8752 7.26596 71.5486 15.3712C70.1458 16.4103 68.7429 17.0858 68.4312 16.9819C68.0675 16.826 65.2618 14.5919 62.1444 11.994C55.442 6.33074 49.3111 1.96638 46.5574 0.823331C43.5959 -0.42363 38.712 -0.215803 35.8543 1.18703Z" fill="#3D52A0"/>
<path d="M17.3578 20.6188C15.5393 20.9825 12.1621 24.2039 10.9671 26.7497C7.90164 33.2963 11.5386 42.077 18.1371 44.1033C20.5271 44.7787 24.4239 44.8307 26.1384 44.2072C28.1648 43.4278 31.1263 40.5702 32.3733 38.2322C33.6722 35.6863 33.88 30.6984 32.7889 26.9056C32.1654 24.7234 32.1654 24.2558 32.8928 23.2167L33.7241 21.9697L28.8922 21.0865C24.4239 20.3071 19.9036 20.0993 17.3578 20.6188Z" fill="#3D52A0"/>
<path d="M101.839 28.5682C99.2415 29.0358 98.722 29.4515 97.5789 32.0493C95.6565 36.4137 97.3711 40.9859 102.255 44.6748C105.372 46.9609 107.71 47.7922 111.295 47.7922C112.646 47.7922 113.893 48.052 114.101 48.3637C114.257 48.6755 112.958 50.442 111.088 52.4163C105.684 57.8718 102.671 63.0155 100.8 69.7179C99.5013 74.394 97.8387 85.7725 97.423 92.7347C96.9035 101.1 97.1113 100.684 92.0715 105.724C87.3434 110.504 81.2126 115.44 78.9265 116.323C76.9001 117.05 73.7827 116.219 67.7558 113.206C58.1438 108.478 45.4663 99.645 35.8024 90.8123C33.3085 88.5782 31.0224 86.7597 30.7106 86.7597C30.3989 86.7597 29.4117 87.5391 28.5285 88.5262C25.9826 91.4878 19.2282 92.9945 19.2282 90.6565C19.2282 90.2408 19.8517 89.5654 20.683 89.1497C22.9171 87.9547 25.515 85.1491 26.5541 82.7591C27.3854 80.7847 27.4374 80.2651 26.8139 77.979C26.0345 74.9136 24.1121 71.9521 22.4495 71.2247C19.1243 69.666 14.708 71.0688 10.9151 74.8097C5.51163 80.1093 4.52445 84.4736 7.48598 89.6173C9.92795 93.7219 11.9543 94.813 28.1128 100.736C37.3611 104.113 47.9603 108.685 56.3772 112.894C69.4703 119.44 78.9784 121.363 86.6161 119.077C91.0843 117.726 100.437 112.946 104.853 109.777C117.322 100.892 125.532 88.4743 129.376 72.7314C130.416 68.6268 130.623 66.3927 130.623 59.2227C130.675 53.6113 130.416 49.6626 129.948 47.7922C128.961 43.7396 125.947 38.2322 123.038 35.0628L120.544 32.3091L112.646 30.3867C108.282 29.3476 104.489 28.4123 104.177 28.3604C103.918 28.3084 102.827 28.3604 101.839 28.5682Z" fill="#3D52A0"/>
<path d="M45.4664 33.1924C39.8031 35.0628 33.8281 41.1417 31.1263 47.8442C29.7235 51.4292 29.2039 58.9629 30.1391 62.9116C31.2302 67.3799 33.932 73.3029 36.8935 77.7193C40.2707 82.7071 49.4151 91.7995 54.7147 95.4885C58.5075 98.1383 58.6114 98.1383 58.6114 96.8393C58.6114 95.8002 58.1958 95.3326 56.689 94.7091C54.1951 93.618 43.3881 82.7071 40.4266 78.1869C37.4131 73.6147 34.4515 66.3927 33.7241 61.8205C32.9967 57.612 33.88 52.4164 36.1661 47.5324C37.8807 43.7915 44.2714 37.1411 47.8044 35.3226C50.7659 33.8678 50.7659 33.8158 49.8827 33.2443C48.9994 32.6728 47.0251 32.6728 45.4664 33.1924Z" fill="#3D52A0"/>
<path d="M6.08317 45.8698C3.84903 46.5972 1.87468 48.2598 0.679673 50.5459C-0.567288 52.9879 -0.047721 58.3394 1.82272 62.0283C3.38142 65.0938 9.25253 71.1727 10.6554 71.1727C11.7465 71.1727 11.6425 70.7571 9.87601 68.7308C9.0447 67.7955 8.31731 66.8084 8.31731 66.5486C8.31731 66.2888 9.66818 65.9771 11.3308 65.8731C17.3578 65.3016 22.1378 61.6127 23.6445 56.3651C25.3591 50.5979 23.4367 48 16.3186 46.2855C11.0191 45.0905 8.99275 44.9865 6.08317 45.8698Z" fill="#3D52A0"/>
<path d="M157.192 87.448C156.339 87.448 155.677 87.2133 155.208 86.744C154.781 86.232 154.568 85.5493 154.568 84.696V44.184C154.568 43.288 154.781 42.6053 155.208 42.136C155.677 41.6667 156.339 41.432 157.192 41.432C158.045 41.432 158.685 41.6667 159.112 42.136C159.581 42.6053 159.816 43.288 159.816 44.184V61.848H186.888V44.184C186.888 43.288 187.101 42.6053 187.528 42.136C187.997 41.6667 188.659 41.432 189.512 41.432C190.365 41.432 191.005 41.6667 191.432 42.136C191.901 42.6053 192.136 43.288 192.136 44.184V84.696C192.136 85.5493 191.901 86.232 191.432 86.744C191.005 87.2133 190.365 87.448 189.512 87.448C188.659 87.448 187.997 87.2133 187.528 86.744C187.101 86.232 186.888 85.5493 186.888 84.696V66.392H159.816V84.696C159.816 85.5493 159.603 86.232 159.176 86.744C158.749 87.2133 158.088 87.448 157.192 87.448ZM206.135 87C205.197 87 204.472 86.7653 203.96 86.296C203.49 85.784 203.256 85.0587 203.256 84.12V44.76C203.256 43.8213 203.49 43.1173 203.96 42.648C204.472 42.136 205.197 41.88 206.135 41.88H229.944C230.669 41.88 231.224 42.072 231.608 42.456C231.992 42.84 232.184 43.3733 232.184 44.056C232.184 44.7813 231.992 45.336 231.608 45.72C231.224 46.104 230.669 46.296 229.944 46.296H208.376V61.912H228.6C229.325 61.912 229.88 62.104 230.264 62.488C230.648 62.8293 230.84 63.3627 230.84 64.088C230.84 64.8133 230.648 65.368 230.264 65.752C229.88 66.136 229.325 66.328 228.6 66.328H208.376V82.584H229.944C230.669 82.584 231.224 82.776 231.608 83.16C231.992 83.544 232.184 84.0773 232.184 84.76C232.184 85.4853 231.992 86.04 231.608 86.424C231.224 86.808 230.669 87 229.944 87H206.135ZM243.256 87C242.403 87 241.741 86.7653 241.272 86.296C240.803 85.784 240.568 85.1013 240.568 84.248V44.312C240.568 43.416 240.781 42.7333 241.208 42.264C241.677 41.7947 242.339 41.56 243.192 41.56C244.045 41.56 244.685 41.7947 245.112 42.264C245.581 42.7333 245.816 43.416 245.816 44.312V82.392H266.808C267.576 82.392 268.173 82.6053 268.6 83.032C269.027 83.416 269.24 83.9707 269.24 84.696C269.24 85.4213 269.027 85.9973 268.6 86.424C268.173 86.808 267.576 87 266.808 87H243.256ZM277.942 87.448C277.089 87.448 276.427 87.2133 275.958 86.744C275.531 86.232 275.318 85.5493 275.318 84.696V44.568C275.318 43.672 275.553 43.0107 276.022 42.584C276.491 42.1147 277.153 41.88 278.006 41.88H293.174C297.995 41.88 301.707 43.0747 304.31 45.464C306.913 47.8107 308.214 51.1387 308.214 55.448C308.214 59.7147 306.913 63.0427 304.31 65.432C301.707 67.8213 297.995 69.016 293.174 69.016H280.566V84.696C280.566 85.5493 280.353 86.232 279.926 86.744C279.499 87.2133 278.838 87.448 277.942 87.448ZM280.566 64.6H292.534C295.99 64.6 298.593 63.832 300.342 62.296C302.134 60.7173 303.03 58.4347 303.03 55.448C303.03 52.4187 302.134 50.136 300.342 48.6C298.593 47.0213 295.99 46.232 292.534 46.232H280.566V64.6ZM333.61 87.576C330.623 87.576 327.999 87.192 325.738 86.424C323.519 85.6133 321.642 84.44 320.106 82.904C318.57 81.3253 317.418 79.384 316.65 77.08C315.882 74.776 315.498 72.1307 315.498 69.144V44.12C315.498 43.224 315.711 42.5627 316.138 42.136C316.607 41.6667 317.269 41.432 318.122 41.432C318.975 41.432 319.615 41.6667 320.042 42.136C320.511 42.5627 320.746 43.224 320.746 44.12V68.888C320.746 73.5813 321.834 77.1013 324.01 79.448C326.186 81.752 329.386 82.904 333.61 82.904C337.834 82.904 341.013 81.752 343.146 79.448C345.279 77.1013 346.346 73.5813 346.346 68.888V44.12C346.346 43.224 346.581 42.5627 347.05 42.136C347.519 41.6667 348.181 41.432 349.034 41.432C349.845 41.432 350.463 41.6667 350.89 42.136C351.359 42.5627 351.594 43.224 351.594 44.12V69.144C351.594 73.112 350.911 76.4827 349.546 79.256C348.223 82.0293 346.218 84.12 343.53 85.528C340.842 86.8933 337.535 87.576 333.61 87.576ZM376.973 87.576C374.967 87.576 373.005 87.4053 371.085 87.064C369.165 86.7227 367.373 86.232 365.709 85.592C364.087 84.952 362.615 84.1413 361.293 83.16C360.781 82.776 360.418 82.3493 360.205 81.88C360.034 81.368 359.991 80.8773 360.077 80.408C360.205 79.896 360.418 79.4693 360.717 79.128C361.058 78.7867 361.463 78.5947 361.933 78.552C362.402 78.5093 362.914 78.6587 363.469 79C365.389 80.3653 367.437 81.368 369.613 82.008C371.789 82.6053 374.242 82.904 376.973 82.904C380.813 82.904 383.65 82.2 385.485 80.792C387.362 79.3413 388.301 77.4427 388.301 75.096C388.301 73.176 387.618 71.6827 386.253 70.616C384.93 69.5067 382.69 68.632 379.533 67.992L372.877 66.648C368.866 65.7947 365.858 64.408 363.853 62.488C361.89 60.5253 360.909 57.9227 360.909 54.68C360.909 52.6747 361.314 50.8613 362.125 49.24C362.935 47.576 364.066 46.168 365.517 45.016C366.967 43.8213 368.695 42.904 370.701 42.264C372.706 41.624 374.925 41.304 377.357 41.304C380.045 41.304 382.541 41.688 384.845 42.456C387.191 43.1813 389.303 44.2907 391.181 45.784C391.65 46.168 391.97 46.616 392.141 47.128C392.311 47.5973 392.333 48.0667 392.205 48.536C392.077 48.9627 391.842 49.3253 391.501 49.624C391.202 49.9227 390.797 50.0933 390.285 50.136C389.815 50.1787 389.282 50.008 388.685 49.624C386.978 48.344 385.207 47.4267 383.373 46.872C381.538 46.2747 379.511 45.976 377.293 45.976C375.031 45.976 373.069 46.3173 371.405 47C369.783 47.6827 368.503 48.6853 367.565 50.008C366.669 51.288 366.22 52.7813 366.22 54.488C366.22 56.536 366.839 58.1573 368.077 59.352C369.357 60.5467 371.426 61.4213 374.285 61.976L380.941 63.384C385.25 64.28 388.429 65.6453 390.477 67.48C392.567 69.272 393.613 71.7253 393.613 74.84C393.613 76.7173 393.229 78.4453 392.461 80.024C391.693 81.6027 390.583 82.968 389.132 84.12C387.682 85.2293 385.933 86.0827 383.885 86.68C381.837 87.2773 379.533 87.576 376.973 87.576Z" fill="#3D52A0"/>
</svg>
